<svg width="81" height="232" viewBox="0 0 81 232" fill="none" xmlns="http://www.w3.org/2000/svg"><mask id="a" style="mask-type:alpha" maskUnits="userSpaceOnUse" x="0" y="0" width="81" height="232"><path fill="#D9D9D9" d="M0 0h81v232H0z"/></mask><g mask="url(#a)"><path d="M-42.872 220.772v-25.864c5.368 0 9.76-.325 13.176-.976 3.416-.651 5.937-1.871 7.564-3.66 1.79-1.627 2.684-3.985 2.684-7.076 0-2.44-.57-5.775-1.708-10.004a807.871 807.871 0 0 0-3.416-14.152L-56.78 39.968h34.892l18.056 86.62 14.64-86.62h35.136L13.248 185.392c-1.952 9.109-5.205 16.185-9.76 21.228-4.392 5.205-9.841 8.865-16.348 10.98-6.344 2.115-13.745 3.172-22.204 3.172h-7.808Z" fill="#E3B445"/></g></svg>